<?xml version="1.0" encoding="UTF-8"?>
<svg xmlns="http://www.w3.org/2000/svg" viewBox="0 0 128 128" role="img" aria-label="SPX Viewer">
  <defs>
    <linearGradient id="bg" x1="0" y1="0" x2="1" y2="1">
      <stop offset="0" stop-color="#3b4a63"/>
      <stop offset="1" stop-color="#1f2937"/>
    </linearGradient>
  </defs>
  <rect x="8" y="8" width="112" height="112" rx="24" fill="url(#bg)"/>
  <rect x="22" y="28" width="32" height="72" rx="6" fill="#9aa7b8"/>
  <rect x="26" y="34" width="24" height="6" rx="3" fill="#1f2937"/>
  <rect x="26" y="44" width="18" height="4" rx="2" fill="#4b5568"/>
  <rect x="26" y="52" width="18" height="4" rx="2" fill="#4b5568"/>
  <rect x="26" y="60" width="18" height="4" rx="2" fill="#4b5568"/>
  <rect x="60" y="28" width="46" height="72" rx="6" fill="#e8eef6"/>
  <rect x="66" y="36" width="34" height="5" rx="2.5" fill="#3b4a63"/>
  <rect x="66" y="48" width="22" height="4" rx="2" fill="#94a3b8"/>
  <rect x="66" y="56" width="28" height="4" rx="2" fill="#94a3b8"/>
  <rect x="66" y="64" width="18" height="4" rx="2" fill="#94a3b8"/>
  <rect x="66" y="72" width="26" height="4" rx="2" fill="#94a3b8"/>
</svg>
